<?xml version="1.0" encoding="utf-8"?>
<!-- Generator: Adobe Illustrator 21.1.0, SVG Export Plug-In . SVG Version: 6.00 Build 0)  -->
<svg version="1.1" id="Layer_1" xmlns="http://www.w3.org/2000/svg" xmlns:xlink="http://www.w3.org/1999/xlink" x="0px" y="0px"
	 viewBox="0 0 128 40" style="enable-background:new 0 0 128 40;" xml:space="preserve">
<style type="text/css">
	.st0{fill:#4267B2;}
	.st1{fill:#FFFFFF;}
	.st2{fill:none;stroke:#31549D;stroke-width:0.75;stroke-miterlimit:10;}
	.st3{fill:#FFFFFF;stroke:#4285F4;stroke-width:0.75;stroke-miterlimit:10;}
	.st4{fill:#4285F4;}
	.st5{fill:#E94335;}
	.st6{fill:#34A753;}
	.st7{fill:#4285F3;}
	.st8{fill:#FABB05;}
	.st9{fill:#5499D0;}
	.st10{fill:#68A8CE;}
</style>
<g>
	<path class="st0" d="M126.3,40H1.7C0.8,40,0,39.3,0,38.3V1.7C0,0.8,0.8,0,1.7,0h124.7c0.9,0,1.7,0.8,1.7,1.7v36.7
		C128,39.3,127.3,40,126.3,40z"/>
	<g>
		<path class="st1" d="M26.6,10.2h-14c-1.4,0-2.6,1.2-2.6,2.6v14c0,1.4,1.2,2.6,2.6,2.6h6.9l0-6.8h-1.8c-0.2,0-0.4-0.2-0.4-0.4
			l0-2.2c0-0.2,0.2-0.4,0.4-0.4h1.8v-2.1c0-2.5,1.5-3.8,3.7-3.8h1.8c0.2,0,0.4,0.2,0.4,0.4v1.9c0,0.2-0.2,0.4-0.4,0.4l-1.1,0
			c-1.2,0-1.4,0.6-1.4,1.4v1.8h2.6c0.3,0,0.4,0.2,0.4,0.5l-0.3,2.2c0,0.2-0.2,0.4-0.4,0.4h-2.4l0,6.8h4.1c1.4,0,2.6-1.2,2.6-2.6v-14
			C29.2,11.3,28,10.2,26.6,10.2z"/>
	</g>
	<line class="st2" x1="39.6" y1="0" x2="39.6" y2="40"/>
	<g>
		<g>
			<path class="st1" d="M62.2,19.6h-3.7v3.9h-1.5v-9.2h5.9v1.2h-4.4v2.8h3.7V19.6z"/>
			<path class="st1" d="M67.9,23.5c-0.1-0.2-0.1-0.3-0.1-0.5c0-0.2-0.1-0.3-0.1-0.5c-0.2,0.3-0.5,0.6-0.8,0.8
				c-0.3,0.2-0.7,0.3-1.2,0.3c-0.7,0-1.3-0.2-1.6-0.6c-0.4-0.4-0.6-0.9-0.6-1.5c0-0.7,0.3-1.2,0.8-1.6c0.5-0.4,1.3-0.6,2.2-0.6h1.2
				v-0.6c0-0.4-0.1-0.6-0.3-0.8c-0.2-0.2-0.5-0.3-0.9-0.3c-0.4,0-0.6,0.1-0.8,0.3c-0.2,0.2-0.3,0.4-0.3,0.7l-1.5,0l0,0
				c0-0.5,0.2-1,0.7-1.4c0.5-0.4,1.2-0.6,2-0.6c0.8,0,1.4,0.2,1.9,0.6c0.5,0.4,0.7,1,0.7,1.8v3.1c0,0.3,0,0.6,0.1,0.8
				c0,0.3,0.1,0.5,0.2,0.8H67.9z M66,22.4c0.4,0,0.7-0.1,1-0.3c0.3-0.2,0.5-0.4,0.6-0.7v-1h-1.2c-0.4,0-0.8,0.1-1.1,0.3
				C65.1,21,65,21.2,65,21.5c0,0.3,0.1,0.5,0.3,0.6C65.4,22.3,65.7,22.4,66,22.4z"/>
			<path class="st1" d="M73.6,22.4c0.4,0,0.6-0.1,0.9-0.3c0.2-0.2,0.4-0.5,0.4-0.8h1.4l0,0c0,0.6-0.2,1.2-0.8,1.7
				c-0.5,0.5-1.2,0.7-1.9,0.7c-1,0-1.8-0.3-2.3-1c-0.5-0.7-0.8-1.5-0.8-2.5V20c0-1,0.3-1.8,0.8-2.5c0.5-0.7,1.3-1,2.3-1
				c0.8,0,1.4,0.2,1.9,0.7c0.5,0.5,0.7,1.1,0.7,1.8l0,0h-1.4c0-0.4-0.1-0.7-0.3-1c-0.2-0.3-0.5-0.4-0.9-0.4c-0.5,0-0.9,0.2-1.2,0.6
				c-0.2,0.4-0.4,1-0.4,1.6v0.2c0,0.6,0.1,1.2,0.4,1.6C72.6,22.2,73,22.4,73.6,22.4z"/>
			<path class="st1" d="M80.5,23.6c-1,0-1.8-0.3-2.4-0.9c-0.6-0.6-0.8-1.5-0.8-2.5V20c0-1,0.3-1.8,0.8-2.5c0.6-0.7,1.3-1,2.2-1
				c0.9,0,1.6,0.3,2.1,0.9c0.5,0.6,0.7,1.3,0.7,2.3v0.8h-4.2l0,0c0,0.6,0.2,1,0.4,1.4c0.3,0.4,0.7,0.5,1.3,0.5
				c0.4,0,0.8-0.1,1.1-0.2s0.6-0.2,0.9-0.4l0.5,1c-0.3,0.2-0.6,0.4-1,0.6C81.5,23.6,81,23.6,80.5,23.6z M80.3,17.7
				c-0.4,0-0.7,0.1-1,0.4c-0.2,0.3-0.4,0.7-0.5,1.1l0,0h2.7v-0.1c0-0.4-0.1-0.8-0.3-1.1C81.1,17.9,80.8,17.7,80.3,17.7z"/>
			<path class="st1" d="M90.4,20.3c0,1-0.2,1.8-0.7,2.4c-0.5,0.6-1.1,0.9-2,0.9c-0.4,0-0.8-0.1-1.1-0.3c-0.3-0.2-0.6-0.4-0.8-0.8
				l-0.2,0.9h-1.3v-9.9h1.5v3.8c0.2-0.3,0.5-0.5,0.8-0.7c0.3-0.2,0.6-0.2,1-0.2c0.9,0,1.5,0.3,2,1s0.7,1.6,0.7,2.7V20.3z M88.9,20.2
				c0-0.7-0.1-1.3-0.4-1.7c-0.2-0.4-0.6-0.7-1.2-0.7c-0.3,0-0.6,0.1-0.9,0.2s-0.4,0.4-0.5,0.6v2.9c0.1,0.3,0.3,0.5,0.5,0.6
				c0.2,0.2,0.5,0.2,0.9,0.2c0.5,0,0.9-0.2,1.2-0.6c0.2-0.4,0.4-0.9,0.4-1.5V20.2z"/>
			<path class="st1" d="M91.4,20c0-1,0.3-1.9,0.8-2.5c0.6-0.7,1.3-1,2.3-1c1,0,1.8,0.3,2.3,1c0.6,0.7,0.8,1.5,0.8,2.5v0.1
				c0,1-0.3,1.9-0.8,2.5s-1.3,1-2.3,1c-1,0-1.8-0.3-2.3-1c-0.6-0.7-0.8-1.5-0.8-2.5V20z M93,20.1c0,0.7,0.1,1.2,0.4,1.6
				s0.7,0.6,1.2,0.6c0.5,0,0.9-0.2,1.2-0.6s0.4-1,0.4-1.6V20c0-0.7-0.1-1.2-0.4-1.6c-0.3-0.4-0.7-0.6-1.2-0.6
				c-0.5,0-0.9,0.2-1.2,0.6c-0.3,0.4-0.4,1-0.4,1.6V20.1z"/>
			<path class="st1" d="M98.8,20c0-1,0.3-1.9,0.8-2.5c0.6-0.7,1.3-1,2.3-1c1,0,1.8,0.3,2.3,1c0.6,0.7,0.8,1.5,0.8,2.5v0.1
				c0,1-0.3,1.9-0.8,2.5s-1.3,1-2.3,1c-1,0-1.8-0.3-2.3-1c-0.6-0.7-0.8-1.5-0.8-2.5V20z M100.4,20.1c0,0.7,0.1,1.2,0.4,1.6
				s0.7,0.6,1.2,0.6c0.5,0,0.9-0.2,1.2-0.6s0.4-1,0.4-1.6V20c0-0.7-0.1-1.2-0.4-1.6c-0.3-0.4-0.7-0.6-1.2-0.6
				c-0.5,0-0.9,0.2-1.2,0.6c-0.3,0.4-0.4,1-0.4,1.6V20.1z"/>
			<path class="st1" d="M108.6,20.5H108v3h-1.5v-9.9h1.5v5.7h0.5l1.9-2.6h1.8l-2.4,3.2l2.6,3.7h-1.8L108.6,20.5z"/>
		</g>
	</g>
</g>
</svg>
