<?xml version="1.0" encoding="utf-8"?>
<!-- Generator: Adobe Illustrator 21.1.0, SVG Export Plug-In . SVG Version: 6.00 Build 0)  -->
<svg version="1.1" id="Layer_1" xmlns="http://www.w3.org/2000/svg" xmlns:xlink="http://www.w3.org/1999/xlink" x="0px" y="0px"
	 viewBox="0 0 128 40" style="enable-background:new 0 0 128 40;" xml:space="preserve">
<style type="text/css">
	.st0{fill:#4267B2;}
	.st1{fill:#FFFFFF;}
	.st2{fill:none;stroke:#31549D;stroke-width:0.75;stroke-miterlimit:10;}
	.st3{fill:#FFFFFF;stroke:#4285F4;stroke-width:0.75;stroke-miterlimit:10;}
	.st4{fill:#4285F4;}
	.st5{fill:#E94335;}
	.st6{fill:#34A753;}
	.st7{fill:#4285F3;}
	.st8{fill:#FABB05;}
	.st9{fill:#5499D0;}
	.st10{fill:#68A8CE;}
</style>
<g>
	<path class="st3" d="M126,39.7H2.1c-0.9,0-1.7-0.8-1.7-1.7V2c0-0.9,0.8-1.7,1.7-1.7h124c0.9,0,1.7,0.8,1.7,1.7v36
		C127.7,38.9,127,39.7,126,39.7z"/>
	<path class="st4" d="M126.7,39.7H39.9c-0.2,0-0.3-0.1-0.3-0.3V0.6c0-0.1,0.1-0.3,0.3-0.3h85.8c1.1,0,2.1,0.9,2.1,2.1v36.3
		C127.7,39.2,127.3,39.7,126.7,39.7z"/>
	<g>
		<g>
			<path class="st1" d="M71.1,22.3c-0.3,0.4-0.7,0.7-1.2,1c-0.6,0.3-1.3,0.4-2.2,0.4c-1.1,0-2-0.4-2.7-1.1C64.4,21.9,64,21,64,19.9
				v-1.9c0-1.1,0.3-2,1-2.7c0.7-0.7,1.6-1.1,2.6-1.1c1.1,0,1.9,0.3,2.5,0.8c0.6,0.5,0.9,1.2,0.9,2.1l0,0h-1.5c0-0.5-0.2-0.9-0.5-1.3
				c-0.3-0.3-0.8-0.5-1.4-0.5c-0.6,0-1.2,0.2-1.5,0.7c-0.4,0.5-0.6,1.1-0.6,1.8v1.9c0,0.7,0.2,1.4,0.6,1.8c0.4,0.5,0.9,0.7,1.6,0.7
				c0.5,0,0.9-0.1,1.2-0.2c0.3-0.1,0.5-0.2,0.7-0.4v-1.9h-1.9v-1.2h3.5V22.3z"/>
			<path class="st1" d="M72.6,20c0-1,0.3-1.9,0.8-2.5c0.6-0.7,1.3-1,2.3-1c1,0,1.8,0.3,2.3,1c0.6,0.7,0.8,1.5,0.8,2.5v0.1
				c0,1-0.3,1.9-0.8,2.5c-0.6,0.6-1.3,1-2.3,1c-1,0-1.8-0.3-2.3-1c-0.6-0.7-0.8-1.5-0.8-2.5V20z M74.1,20.1c0,0.7,0.1,1.2,0.4,1.6
				c0.3,0.4,0.7,0.6,1.2,0.6c0.5,0,0.9-0.2,1.2-0.6s0.4-1,0.4-1.6V20c0-0.7-0.1-1.2-0.4-1.6c-0.3-0.4-0.7-0.6-1.2-0.6
				c-0.5,0-0.9,0.2-1.2,0.6c-0.3,0.4-0.4,1-0.4,1.6V20.1z"/>
			<path class="st1" d="M79.9,20c0-1,0.3-1.9,0.8-2.5c0.6-0.7,1.3-1,2.3-1c1,0,1.8,0.3,2.3,1c0.6,0.7,0.8,1.5,0.8,2.5v0.1
				c0,1-0.3,1.9-0.8,2.5s-1.3,1-2.3,1c-1,0-1.8-0.3-2.3-1c-0.6-0.7-0.8-1.5-0.8-2.5V20z M81.5,20.1c0,0.7,0.1,1.2,0.4,1.6
				c0.3,0.4,0.7,0.6,1.2,0.6c0.5,0,0.9-0.2,1.2-0.6c0.3-0.4,0.4-1,0.4-1.6V20c0-0.7-0.1-1.2-0.4-1.6c-0.3-0.4-0.7-0.6-1.2-0.6
				c-0.5,0-0.9,0.2-1.2,0.6c-0.3,0.4-0.4,1-0.4,1.6V20.1z"/>
			<path class="st1" d="M87.3,20.2c0-1.1,0.2-2,0.7-2.6c0.5-0.7,1.1-1,2-1c0.4,0,0.8,0.1,1.1,0.3c0.3,0.2,0.6,0.4,0.8,0.8l0.2-0.9
				h1.3v6.9c0,0.9-0.3,1.6-0.8,2.1c-0.5,0.5-1.3,0.7-2.3,0.7c-0.3,0-0.7,0-1.1-0.1c-0.4-0.1-0.7-0.2-1-0.4l0.2-1.2
				c0.3,0.1,0.6,0.2,0.9,0.3c0.3,0.1,0.7,0.1,1,0.1c0.6,0,1-0.1,1.2-0.4s0.4-0.6,0.4-1.1v-0.7c-0.2,0.3-0.5,0.5-0.8,0.6
				s-0.6,0.2-1,0.2c-0.8,0-1.5-0.3-2-0.9c-0.5-0.6-0.7-1.4-0.7-2.4V20.2z M88.9,20.3c0,0.6,0.1,1.1,0.4,1.5c0.2,0.4,0.6,0.6,1.2,0.6
				c0.3,0,0.6-0.1,0.8-0.2c0.2-0.1,0.4-0.3,0.5-0.6v-3c-0.1-0.2-0.3-0.4-0.6-0.6c-0.2-0.1-0.5-0.2-0.8-0.2c-0.5,0-0.9,0.2-1.2,0.7
				c-0.3,0.4-0.4,1-0.4,1.7V20.3z"/>
			<path class="st1" d="M96.6,23.5H95v-9.9h1.5V23.5z"/>
			<path class="st1" d="M101.2,23.6c-1,0-1.8-0.3-2.4-0.9c-0.6-0.6-0.8-1.5-0.8-2.5V20c0-1,0.3-1.8,0.8-2.5c0.6-0.7,1.3-1,2.2-1
				c0.9,0,1.6,0.3,2.1,0.9c0.5,0.6,0.7,1.3,0.7,2.3v0.8h-4.2l0,0c0,0.6,0.2,1,0.4,1.4c0.3,0.4,0.7,0.5,1.3,0.5
				c0.4,0,0.8-0.1,1.1-0.2s0.6-0.2,0.9-0.4l0.5,1c-0.3,0.2-0.6,0.4-1,0.6C102.3,23.6,101.8,23.6,101.2,23.6z M101.1,17.7
				c-0.4,0-0.7,0.1-1,0.4c-0.2,0.3-0.4,0.7-0.5,1.1l0,0h2.7v-0.1c0-0.4-0.1-0.8-0.3-1.1C101.8,17.9,101.5,17.7,101.1,17.7z"/>
		</g>
	</g>
	<g>
		<path class="st5" d="M11.6,15.8c0.1-0.3,0.3-0.5,0.4-0.8c0.7-1.1,1.6-2.1,2.7-2.8c0.8-0.6,1.7-1,2.7-1.2c0.4-0.1,0.7-0.2,1.1-0.2
			c0.2,0,0.4-0.1,0.6-0.1c0.2,0,0.3,0,0.5,0c0.3,0,0.5,0,0.8,0c0.2,0,0.5,0,0.7,0c0.8,0.1,1.6,0.3,2.3,0.6c1,0.4,2,1,2.8,1.7
			c0,0,0,0,0,0c0,0,0,0,0,0c-0.9,0.9-1.8,1.8-2.6,2.7c0,0-0.1,0-0.1,0c-0.7-0.6-1.6-1-2.5-1.1c-0.6-0.1-1.1-0.1-1.7,0
			c-2.1,0.3-3.8,1.7-4.5,3.7c0,0,0,0,0,0c-0.2-0.2-0.4-0.3-0.6-0.5c-0.5-0.4-1-0.8-1.6-1.2C12.2,16.3,11.9,16.1,11.6,15.8z"/>
		<path class="st6" d="M14.7,21.7c0.1,0.3,0.2,0.6,0.4,0.8c0.7,1.2,1.6,2.1,2.9,2.6c0.4,0.2,0.9,0.3,1.3,0.3c0.3,0,0.7,0,1,0
			c0.9,0,1.8-0.3,2.6-0.7c0.1,0,0.1-0.1,0.2-0.1c0.2,0.2,0.4,0.3,0.6,0.5c0.8,0.6,1.6,1.2,2.4,1.8c-0.2,0.2-0.4,0.4-0.6,0.5
			c-1,0.8-2.1,1.3-3.4,1.6c-0.3,0.1-0.6,0.1-0.9,0.2c-0.2,0-0.3,0-0.5,0.1c-0.4,0-0.8,0-1.2,0c-0.3,0-0.6,0-0.8-0.1
			c-0.5-0.1-1-0.2-1.5-0.3c-0.9-0.3-1.7-0.6-2.4-1.1c-1.3-0.9-2.3-2-3.1-3.4c0-0.1-0.1-0.2-0.1-0.2c0,0,0,0,0,0
			c0.7-0.6,1.5-1.1,2.2-1.7C14.1,22.2,14.4,22,14.7,21.7z"/>
		<path class="st7" d="M26.1,27c-0.8-0.6-1.6-1.2-2.4-1.8c-0.2-0.2-0.4-0.3-0.6-0.5c0.2-0.1,0.3-0.2,0.5-0.3c0.5-0.4,0.9-1,1.2-1.6
			c0.1-0.3,0.2-0.6,0.3-0.9c0,0,0,0,0,0c0,0,0,0-0.1,0c-1.7,0-3.3,0-5,0c0,0,0,0,0,0c0-1.2,0-2.4,0-3.5c0,0,0,0,0,0
			c2.5,0,5.1,0,7.6,0c0.4,0,0.7,0,1.1,0c0,0.2,0.1,0.4,0.1,0.5c0,0.2,0.1,0.4,0.1,0.6c0,0.3,0,0.6,0,0.9c0,0.1,0,0.3,0,0.4
			c0,0.2,0,0.5-0.1,0.7c0,0.4-0.1,0.7-0.2,1.1c-0.3,1.2-0.7,2.3-1.4,3.2C26.9,26.2,26.5,26.6,26.1,27C26.1,27,26.1,27,26.1,27z"/>
		<path class="st8" d="M14.7,21.7c-0.3,0.2-0.6,0.4-0.9,0.7c-0.7,0.6-1.5,1.1-2.2,1.7c0,0,0,0,0,0c-0.1-0.1-0.1-0.2-0.1-0.3
			c-0.3-0.7-0.5-1.4-0.7-2.2c0-0.3-0.1-0.5-0.1-0.8c0-0.4,0-0.8,0-1.2c0-0.1,0-0.2,0-0.4c0-0.1,0-0.2,0-0.3c0-0.4,0.1-0.8,0.2-1.2
			c0.2-0.7,0.4-1.3,0.7-2c0,0,0,0,0-0.1c0.3,0.2,0.6,0.5,1,0.7c0.5,0.4,1,0.8,1.6,1.2c0.2,0.2,0.4,0.3,0.6,0.5
			c0,0.2-0.1,0.3-0.1,0.5c-0.1,0.3-0.1,0.6-0.1,0.9c0,0.3,0,0.5,0,0.8c0,0.4,0.1,0.8,0.2,1.2C14.7,21.6,14.7,21.7,14.7,21.7z"/>
	</g>
	<path class="st9" d="M28.7,18.3c-0.4,0-0.7,0-1.1,0c-2.5,0-5.1,0-7.6,0c0,0,0,0,0,0C22.9,18.3,25.8,18.3,28.7,18.3
		C28.7,18.3,28.7,18.3,28.7,18.3z"/>
	<path class="st10" d="M20,21.9c1.7,0,3.3,0,5,0c0,0,0,0,0.1,0c0,0,0,0,0,0c0,0,0,0-0.1,0C23.3,21.9,21.7,21.9,20,21.9
		C20,21.9,20,21.9,20,21.9z"/>
</g>
</svg>
